<svg xmlns="http://www.w3.org/2000/svg" viewBox="0 0 20 12" enable-background="new 0 0 20 12"><path d="M19.2 0c-.4 0-.8.4-.8.8V4c-.8-.7-1.8-1-2.8-1-1.2 0-2.3.5-3.2 1.3-.4.4-.8.9-1 1.5-.9-.3-1.9-.3-2.8 0-.2-.6-.6-1.1-1-1.5C6.8 3.4 5.7 3 4.5 3c-1.1 0-2 .4-2.8 1V.8C1.6.4 1.3 0 .8 0 .4 0 0 .4 0 .8v6.6c0 1.2.5 2.3 1.3 3.2.8.8 2 1.3 3.2 1.3 1.2 0 2.3-.5 3.2-1.3.9-.9 1.3-2 1.3-3.2.7-.3 1.4-.3 2.1 0 0 1.2.5 2.3 1.3 3.2.8.8 2 1.3 3.2 1.3 1.2 0 2.3-.5 3.2-1.3.9-.9 1.3-2 1.3-3.2V.8c-.1-.4-.4-.8-.9-.8zM6.5 9.5c-.5.5-1.3.8-2 .8-.8 0-1.5-.3-2-.8s-.8-1.2-.8-2 .3-1.5.8-2 1.3-.8 2-.8c.8 0 1.5.3 2 .8s.8 1.2.8 2c0 .7-.3 1.4-.8 2zm11.1 0c-.5.5-1.3.8-2 .8-.8 0-1.5-.3-2-.8s-.8-1.2-.8-2 .3-1.5.8-2 1.3-.8 2-.8c.8 0 1.5.3 2 .8s.8 1.2.8 2-.3 1.4-.8 2z"/></svg>