<?xml version="1.0" encoding="utf-8"?>
<!-- Generator: Adobe Illustrator 18.0.0, SVG Export Plug-In . SVG Version: 6.00 Build 0)  -->
<!DOCTYPE svg PUBLIC "-//W3C//DTD SVG 1.1//EN" "http://www.w3.org/Graphics/SVG/1.1/DTD/svg11.dtd">
<svg version="1.1" id="Layer_1" xmlns="http://www.w3.org/2000/svg" xmlns:xlink="http://www.w3.org/1999/xlink" x="0px" y="0px"
	 viewBox="0 0 89 85" enable-background="new 0 0 89 85" xml:space="preserve">
<linearGradient id="SVGID_1_" gradientUnits="userSpaceOnUse" x1="44.5" y1="1.7453" x2="44.5" y2="54.245">
	<stop  offset="0" style="stop-color:#FFFFFF"/>
	<stop  offset="1" style="stop-color:#B48C66"/>
</linearGradient>
<path fill="url(#SVGID_1_)" d="M34,19.5l-0.8-1l11.3-9.8l11.3,9.8L55,19.4l-10.5-9L34,19.5z M52.7,38.7L52.7,38.7l0.1,3.3h-1.3v-2
	H37.7v2h-1.3v-3.3h2.5V27.4h-0.8v-1.3h12.8v1.3h-0.7v11.3H52.7z M40.2,38.7h8.7V27.4h-8.7V38.7z M57.4,22.5H59v-1.3H30v1.3h1.7v18.3
	H30v1.3h4.6v-1.3H33V22.5h23.1v18.3h-1.6v1.3h4.6v-1.3h-1.7C57.4,40.8,57.4,22.5,57.4,22.5z M69.1,30.1c0.8,1.1,1.1,2.5,0.8,3.8
	c-0.3,1.3-1.1,2.5-2.3,3.1c-1.4,0.7-2,2.2-1.8,3.6c0.3,1.4-0.1,2.7-0.9,3.8s-2.1,1.7-3.4,1.8c-1.6,0.1-2.8,1.1-3.2,2.5
	c-0.6,2.1-2.4,3.5-4.5,3.5c-0.6,0-1.2-0.2-1.8-0.4c-0.5-0.2-0.9-0.3-1.4-0.3c-0.9,0-1.9,0.4-2.5,1.1c-0.9,1.1-2.2,1.6-3.7,1.5
	c-1.3,0-2.6-0.6-3.5-1.6c-1-1.1-2.6-1.4-3.9-0.9c-2.8,1.2-5.7-0.4-6.4-3c-0.4-1.5-1.6-2.5-3.1-2.6c-1.4-0.1-2.7-0.8-3.5-1.8
	s-1.1-2.4-0.9-3.7c0.3-1.6-0.4-3-1.7-3.7c-1.3-0.7-2.1-1.8-2.4-3.1s0-2.7,0.8-3.8c0.9-1.2,0.9-2.8,0.1-4c-0.8-1.1-1.1-2.5-0.8-3.8
	c0.3-1.3,1.1-2.5,2.3-3.1c1.4-0.7,2-2.2,1.8-3.6c-0.3-1.4,0.1-2.8,0.9-3.8c0.8-1.1,2.1-1.7,3.4-1.8c1.6,0,2.8-1,3.3-2.5
	c0.6-2.1,2.4-3.5,4.5-3.5c0.6,0,1.2,0.2,1.8,0.4c0.5,0.2,0.9,0.3,1.4,0.3c0.9,0,1.9-0.4,2.5-1.1c0.9-1,2.3-1.4,3.6-1.4
	s2.6,0.6,3.5,1.6c1,1.1,2.6,1.4,3.9,0.9c0.7-0.3,1.3-0.4,1.9-0.4c2.1,0,3.9,1.4,4.5,3.4C58.9,9,60.1,10,61.5,10
	c1.4,0.1,2.7,0.8,3.5,1.8s1.1,2.4,0.9,3.7c-0.3,1.6,0.4,3,1.7,3.7c1.3,0.7,2.1,1.8,2.4,3.1s0,2.7-0.8,3.8
	C68.3,27.3,68.3,28.9,69.1,30.1z M68.4,30.9c-1.2-1.7-1.2-3.9,0-5.5c0.6-0.9,0.8-1.8,0.6-2.8c-0.2-0.9-0.8-1.7-1.7-2.2
	c-1.8-1-2.7-2.9-2.4-4.9c0.2-1-0.1-2-0.7-2.8s-1.5-1.2-2.5-1.3c-2-0.1-3.8-1.5-4.3-3.4c-0.4-1.6-1.8-2.6-3.3-2.6
	c-0.4,0-0.9,0.1-1.3,0.3c-2.1,0.8-4.1,0.3-5.4-1.2c-0.7-0.8-1.6-1.2-2.6-1.2c-0.9,0-1.9,0.4-2.5,1.1c-1.4,1.6-3.6,2.1-5.4,1.3
	c-0.5-0.2-0.9-0.3-1.4-0.3c-1.5,0-2.9,1-3.3,2.5c-0.6,2-2.3,3.4-4.3,3.5c-1.1,0.1-2,0.5-2.6,1.3s-0.9,1.7-0.7,2.7
	c0.3,2.1-0.6,4-2.4,5c-1,0.5-1.6,1.3-1.8,2.3c-0.3,0.9-0.1,1.9,0.5,2.7c1.2,1.7,1.2,3.9,0,5.5c-0.6,0.8-0.8,1.8-0.6,2.8
	c0.2,0.9,0.8,1.7,1.7,2.2c1.8,1,2.7,2.9,2.4,4.9c-0.2,1,0.1,2,0.7,2.8s1.5,1.2,2.5,1.3c2,0.1,3.8,1.5,4.3,3.4
	c0.4,1.6,1.8,2.6,3.3,2.6c0.4,0,0.9-0.1,1.3-0.3c0.6-0.3,1.2-0.4,1.9-0.4c1.3,0,2.6,0.6,3.5,1.6c0.7,0.8,1.6,1.2,2.6,1.2
	c0.9,0,1.9-0.4,2.5-1.1c1.4-1.6,3.6-2.1,5.4-1.3c0.5,0.2,0.9,0.3,1.4,0.3c1.5,0,2.9-1,3.3-2.5c0.6-2,2.3-3.4,4.3-3.5
	c1.1-0.1,2-0.5,2.6-1.3c0.6-0.8,0.9-1.7,0.7-2.7c-0.3-2.1,0.6-4,2.4-5c1-0.5,1.6-1.4,1.8-2.3C69.2,32.7,69,31.7,68.4,30.9z"/>
<path fill="#FFFFFF" d="M8.8,81.2v-9.9H2.7v9.9H1.4V70h8.8v11.3H8.8V81.2z M18.2,81.2h-1.4V70c0.2,0,0.7,0,1.4,0c0.8,0,1.3,0,1.5,0
	c1.5,0,2.5,0.3,3.2,1s1,1.5,1,2.5s-0.4,1.8-1.1,2.5s-1.7,1-3,1c-0.6,0-1.2,0-1.7-0.1v4.3C18.1,81.2,18.2,81.2,18.2,81.2z M18.2,71.2
	v4.3c0.6,0,1.2,0.1,1.6,0.1c1.6,0,2.6-0.8,2.6-2.3c0-1.4-0.8-2.2-2.6-2.2C19.5,71.2,18.9,71.2,18.2,71.2z M30.2,71.5
	c1.1-1.1,2.4-1.7,4.1-1.7c1.6,0,3,0.5,4.1,1.6s1.6,2.5,1.6,4.1s-0.5,3-1.6,4.1s-2.4,1.6-4.1,1.6c-1.6,0-3-0.5-4.1-1.6
	s-1.6-2.5-1.6-4.1S29.1,72.6,30.2,71.5z M31.2,78.8c0.8,0.8,1.8,1.3,3,1.3c1.3,0,2.3-0.4,3.1-1.3c0.8-0.8,1.2-1.9,1.2-3.2
	s-0.4-2.4-1.2-3.2c-0.8-0.8-1.8-1.3-3-1.3s-2.2,0.4-3.1,1.3c-0.8,0.8-1.2,1.9-1.2,3.2C30,76.8,30.4,77.9,31.2,78.8z M43.8,83.3v-3.4
	H45c0.3-0.4,0.7-1.3,1.1-2.6c0.4-1.3,0.6-3,0.8-5.1L47,70h6.6v9.9h1.5v3.4h-1.3v-2.1h-8.7v2.1H43.8L43.8,83.3z M48.1,73.2
	c-0.1,1.7-0.4,3.2-0.7,4.4c-0.3,1.2-0.7,2-0.9,2.3h5.7v-8.6h-3.9L48.1,73.2z M61.1,71.5c1.1-1.1,2.4-1.7,4.1-1.7
	c1.6,0,3,0.5,4.1,1.6s1.6,2.5,1.6,4.1s-0.5,3-1.6,4.1s-2.4,1.6-4.1,1.6c-1.6,0-3-0.5-4.1-1.6s-1.6-2.5-1.6-4.1S60,72.6,61.1,71.5z
	 M62.2,78.8c0.8,0.8,1.8,1.3,3,1.3c1.3,0,2.3-0.4,3.1-1.3c0.8-0.8,1.2-1.9,1.2-3.2s-0.4-2.4-1.2-3.2c-0.8-0.8-1.8-1.3-3-1.3
	s-2.2,0.4-3.1,1.3c-0.8,0.8-1.2,1.9-1.2,3.2C60.9,76.8,61.4,77.9,62.2,78.8z M76.7,81.2V70h1.4l4.2,5.7l4-5.7h1.3v11.3h-1.4v-9.1
	l-4,5.6h-0.1l-4-5.6v9L76.7,81.2L76.7,81.2z"/>
</svg>
